# xmcd
#
# Track frame offsets: 
#        150
#        29262
#        54406
#
# Disc length: 974 seconds
#
# Revision: 1
# Processed by: cddbd v1.5.2PL0 Copyright (c) Steve Scherf et al.
# Submitted via: ExactAudioCopy v0.99pb4
#
DISCID=1c03cc03
DTITLE=Sztereó Magyar Jazz - No. 8 - Balázs Elemér
DYEAR=2003
DGENRE=Jazz
TTITLE0=Peach Tree
TTITLE1=The King's Farewell
TTITLE2=Brother's Song
EXTD=YEAR: 2003
EXTT0=
EXTT1=
EXTT2=
PLAYORDER=
